REM DIRINDEX 1\2,1\3,1\4,1\5
REM DIRNAME folder01,folder02,folder03,folder04,folder05
TITLE ""
FILE "1800_149.mp3" MP3
  TRACK 01 AUDIO
    TITLE "2:cjc044_4617"
    INDEX 01 00:00:00
  TRACK 02 AUDIO
    TITLE "0:"
    INDEX 01 00:01:05
  TRACK 03 AUDIO
    TITLE "3:cjc044_4618"
    INDEX 01 00:01:62
  TRACK 04 AUDIO
    TITLE "0:"
    INDEX 01 00:02:63
  TRACK 05 AUDIO
    TITLE "4:cjc044_4619"
    INDEX 01 00:03:43
  TRACK 06 AUDIO
    TITLE "0:"
    INDEX 01 00:04:60
  TRACK 07 AUDIO
    TITLE "2:cjc044_4620"
    INDEX 01 00:06:41
  TRACK 08 AUDIO
    TITLE "0:"
    INDEX 01 00:07:58
  TRACK 09 AUDIO
    TITLE "3:cjc044_4621"
    INDEX 01 00:08:46
  TRACK 10 AUDIO
    TITLE "0:"
    INDEX 01 00:09:53
  TRACK 11 AUDIO
    TITLE "4:cjc044_4622"
    INDEX 01 00:10:59
  TRACK 12 AUDIO
    TITLE "0:"
    INDEX 01 00:12:03
  TRACK 13 AUDIO
    TITLE "2:cjc044_4623"
    INDEX 01 00:13:59
  TRACK 14 AUDIO
    TITLE "0:"
    INDEX 01 00:14:66
  TRACK 15 AUDIO
    TITLE "3:cjc044_4624"
    INDEX 01 00:15:44
  TRACK 16 AUDIO
    TITLE "0:"
    INDEX 01 00:17:29
  TRACK 17 AUDIO
    TITLE "4:cjc044_4625"
    INDEX 01 00:18:11
  TRACK 18 AUDIO
    TITLE "0:"
    INDEX 01 00:19:18
  TRACK 19 AUDIO
    TITLE "2:cjc044_4626"
    INDEX 01 00:20:71
  TRACK 20 AUDIO
    TITLE "0:"
    INDEX 01 00:22:03
  TRACK 21 AUDIO
    TITLE "3:cjc044_4627"
    INDEX 01 00:22:60
  TRACK 22 AUDIO
    TITLE "0:"
    INDEX 01 00:23:61
  TRACK 23 AUDIO
    TITLE "4:cjc044_4628"
    INDEX 01 00:24:39
  TRACK 24 AUDIO
    TITLE "0:"
    INDEX 01 00:25:48
  TRACK 25 AUDIO
    TITLE "2:cjc044_4629"
    INDEX 01 00:27:30
  TRACK 26 AUDIO
    TITLE "0:"
    INDEX 01 00:28:47
  TRACK 27 AUDIO
    TITLE "3:cjc044_4630"
    INDEX 01 00:29:27
  TRACK 28 AUDIO
    TITLE "0:"
    INDEX 01 00:30:30
  TRACK 29 AUDIO
    TITLE "4:cjc044_4631"
    INDEX 01 00:31:12
  TRACK 30 AUDIO
    TITLE "0:"
    INDEX 01 00:32:29
  TRACK 31 AUDIO
    TITLE "2:cjc044_4632"
    INDEX 01 00:34:12
  TRACK 32 AUDIO
    TITLE "0:"
    INDEX 01 00:35:33
  TRACK 33 AUDIO
    TITLE "3:cjc044_4633"
    INDEX 01 00:36:25
  TRACK 34 AUDIO
    TITLE "0:"
    INDEX 01 00:37:42
  TRACK 35 AUDIO
    TITLE "4:cjc044_4634"
    INDEX 01 00:38:33
  TRACK 36 AUDIO
    TITLE "0:"
    INDEX 01 00:39:58
  TRACK 37 AUDIO
    TITLE "2:cjc044_4635"
    INDEX 01 00:41:42
  TRACK 38 AUDIO
    TITLE "0:"
    INDEX 01 00:43:29
  TRACK 39 AUDIO
    TITLE "3:cjc044_4636"
    INDEX 01 00:44:16
  TRACK 40 AUDIO
    TITLE "0:"
    INDEX 01 00:45:71
  TRACK 41 AUDIO
    TITLE "4:cjc044_4637"
    INDEX 01 00:46:66
  TRACK 42 AUDIO
    TITLE "0:"
    INDEX 01 00:48:51
  TRACK 43 AUDIO
    TITLE "2:cjc044_4638"
    INDEX 01 00:50:29
  TRACK 44 AUDIO
    TITLE "0:"
    INDEX 01 00:51:48
  TRACK 45 AUDIO
    TITLE "3:cjc044_4639"
    INDEX 01 00:52:26
  TRACK 46 AUDIO
    TITLE "0:"
    INDEX 01 00:53:39
  TRACK 47 AUDIO
    TITLE "4:cjc044_4640"
    INDEX 01 00:54:17
  TRACK 48 AUDIO
    TITLE "0:"
    INDEX 01 00:55:36
  TRACK 49 AUDIO
    TITLE "2:cjc044_4641"
    INDEX 01 00:57:17
  TRACK 50 AUDIO
    TITLE "0:"
    INDEX 01 00:58:48
  TRACK 51 AUDIO
    TITLE "3:cjc044_4642"
    INDEX 01 00:59:32
  TRACK 52 AUDIO
    TITLE "0:"
    INDEX 01 01:00:45
  TRACK 53 AUDIO
    TITLE "4:cjc044_4643"
    INDEX 01 01:01:34
  TRACK 54 AUDIO
    TITLE "0:"
    INDEX 01 01:02:73
  TRACK 55 AUDIO
    TITLE "2:cjc044_4644"
    INDEX 01 01:04:54
  TRACK 56 AUDIO
    TITLE "0:"
    INDEX 01 01:06:06
  TRACK 57 AUDIO
    TITLE "3:cjc044_4645"
    INDEX 01 01:06:55
  TRACK 58 AUDIO
    TITLE "0:"
    INDEX 01 01:07:63
  TRACK 59 AUDIO
    TITLE "4:cjc044_4646"
    INDEX 01 01:08:42
  TRACK 60 AUDIO
    TITLE "0:"
    INDEX 01 01:09:69
  TRACK 61 AUDIO
    TITLE "2:cjc044_4647"
    INDEX 01 01:11:41
  TRACK 62 AUDIO
    TITLE "0:"
    INDEX 01 01:12:60
  TRACK 63 AUDIO
    TITLE "3:cjc044_4648"
    INDEX 01 01:13:42
  TRACK 64 AUDIO
    TITLE "0:"
    INDEX 01 01:14:63
  TRACK 65 AUDIO
    TITLE "4:cjc044_4649"
    INDEX 01 01:15:37
  TRACK 66 AUDIO
    TITLE "0:"
    INDEX 01 01:16:56
  TRACK 67 AUDIO
    TITLE "2:cjc044_4650"
    INDEX 01 01:18:35
  TRACK 68 AUDIO
    TITLE "0:"
    INDEX 01 01:19:46
  TRACK 69 AUDIO
    TITLE "3:cjc044_4651"
    INDEX 01 01:20:26
  TRACK 70 AUDIO
    TITLE "0:"
    INDEX 01 01:21:47
  TRACK 71 AUDIO
    TITLE "4:cjc044_4652"
    INDEX 01 01:22:19
  TRACK 72 AUDIO
    TITLE "0:"
    INDEX 01 01:23:32
  TRACK 73 AUDIO
    TITLE "2:cjc044_4653"
    INDEX 01 01:25:13
  TRACK 74 AUDIO
    TITLE "0:"
    INDEX 01 01:26:48
  TRACK 75 AUDIO
    TITLE "3:cjc044_4654"
    INDEX 01 01:27:28
  TRACK 76 AUDIO
    TITLE "0:"
    INDEX 01 01:28:14
  TRACK 77 AUDIO
    TITLE "4:cjc044_4655"
    INDEX 01 01:28:72
  TRACK 78 AUDIO
    TITLE "0:"
    INDEX 01 01:30:34
  TRACK 79 AUDIO
    TITLE "2:cjc044_4656"
    INDEX 01 01:32:12
  TRACK 80 AUDIO
    TITLE "0:"
    INDEX 01 01:33:46
  TRACK 81 AUDIO
    TITLE "3:cjc044_4657"
    INDEX 01 01:34:26
  TRACK 82 AUDIO
    TITLE "0:"
    INDEX 01 01:35:37
  TRACK 83 AUDIO
    TITLE "4:cjc044_4658"
    INDEX 01 01:36:15
  TRACK 84 AUDIO
    TITLE "0:"
    INDEX 01 01:37:48
  TRACK 85 AUDIO
    TITLE "2:cjc044_4659"
    INDEX 01 01:39:27
  TRACK 86 AUDIO
    TITLE "0:"
    INDEX 01 01:40:56
  TRACK 87 AUDIO
    TITLE "3:cjc044_4660"
    INDEX 01 01:41:48
  TRACK 88 AUDIO
    TITLE "0:"
    INDEX 01 01:42:69
  TRACK 89 AUDIO
    TITLE "4:cjc044_4661"
    INDEX 01 01:43:58
  TRACK 90 AUDIO
    TITLE "0:"
    INDEX 01 01:45:10
